<svg width="27" height="29" viewBox="0 0 27 29" fill="none" xmlns="http://www.w3.org/2000/svg">
<path d="M24.4781 8.26562L23.6172 7.40468L15.6422 15.3797C14.6453 16.3766 12.9687 16.3766 11.9719 15.3797L3.99686 7.44999L3.13593 8.31093L9.07186 14.2469L3.13593 20.1828L3.99686 21.0437L9.9328 15.1078L11.1109 16.2859C11.8359 17.0109 12.7875 17.4187 13.7844 17.4187C14.7812 17.4187 15.7328 17.0109 16.4578 16.2859L17.6359 15.1078L23.5719 21.0437L24.4328 20.1828L18.4969 14.2469L24.4781 8.26562Z" fill="#8A8F99"/>
<path d="M22.8016 22.5844H4.90313C3.86094 22.5844 3 21.7234 3 20.6812V7.90312C3 6.86094 3.86094 6 4.90313 6H22.8016C23.8438 6 24.7047 6.86094 24.7047 7.90312V20.6812C24.7047 21.7234 23.8438 22.5844 22.8016 22.5844ZM4.85781 7.22344C4.49531 7.22344 4.22344 7.49531 4.22344 7.85781V20.6359C4.22344 20.9984 4.49531 21.2703 4.85781 21.2703H22.7563C23.1188 21.2703 23.3906 20.9984 23.3906 20.6359V7.85781C23.3906 7.49531 23.1188 7.22344 22.7563 7.22344H4.85781Z" fill="#8A8F99"/>
</svg>
