<svg width="27" height="29" viewBox="0 0 27 29" fill="none" xmlns="http://www.w3.org/2000/svg">
<path fill-rule="evenodd" clip-rule="evenodd" d="M11.592 15.957C14.851 15.957 19.184 16.324 19.184 19.499C19.184 22.8435 14.1351 23.0442 11.9694 23.0562L11.1831 23.0562C8.87394 23.0443 4 22.8447 4 19.519C4 16.1707 9.04889 15.9698 11.2146 15.9578L11.4748 15.957C11.5153 15.957 11.5544 15.957 11.592 15.957ZM11.592 17.457C8.813 17.457 5.5 17.814 5.5 19.519C5.5 20.871 7.55 21.557 11.592 21.557C15.634 21.557 17.684 20.864 17.684 19.499C17.684 18.144 15.634 17.457 11.592 17.457ZM20.7067 15.4899C23.4127 15.8949 23.9797 17.1479 23.9797 18.1269C23.9797 18.8559 23.6647 19.8429 22.1617 20.4119C22.0747 20.4449 21.9847 20.4609 21.8957 20.4609C21.5927 20.4609 21.3077 20.2759 21.1947 19.9769C21.0477 19.5899 21.2427 19.1559 21.6297 19.0099C22.4797 18.6879 22.4797 18.2949 22.4797 18.1269C22.4797 17.5599 21.8087 17.1719 20.4857 16.9749C20.0757 16.9129 19.7927 16.5309 19.8537 16.1219C19.9157 15.7119 20.3047 15.4369 20.7067 15.4899ZM11.592 4C14.423 4 16.7271 6.304 16.7271 9.135C16.733 10.499 16.204 11.787 15.24 12.757C14.278 13.728 12.993 14.265 11.626 14.27H11.592C8.76 14.27 6.456 11.966 6.456 9.135C6.456 6.304 8.76 4 11.592 4ZM18.6796 5.1238C20.6446 5.4458 22.0706 7.1268 22.0706 9.1198C22.0666 11.1248 20.5696 12.8468 18.5876 13.1248C18.5526 13.1298 18.5176 13.1318 18.4826 13.1318C18.1146 13.1318 17.7936 12.8608 17.7406 12.4858C17.6836 12.0758 17.9686 11.6958 18.3786 11.6388C19.6266 11.4638 20.5686 10.3808 20.5706 9.1188C20.5706 7.8648 19.6726 6.8068 18.4376 6.6048C18.0286 6.5368 17.7516 6.1518 17.8186 5.7428C17.8856 5.3338 18.2726 5.0588 18.6796 5.1238ZM11.592 5.5C9.587 5.5 7.956 7.131 7.956 9.135C7.956 11.139 9.587 12.77 11.592 12.77H11.623C12.587 12.766 13.495 12.387 14.176 11.7C14.858 11.015 15.231 10.104 15.227 9.138C15.227 7.131 13.596 5.5 11.592 5.5Z" fill="#AFAFAF"/>
</svg>
